SiMBALORD PRESENTS
... A UKB RELEASE


TiTLE: Inception
TYPE : x264 DVDRip
SiZE : 1.97 GB (2,116,972,331 bytes)
PS3 : Yes, Tested


PLOT : In a world where technology exists
to enter the human mind through dream invasion,
a highly skilled thief is given a final chance
at redemption which involves executing his
toughest job till date, Inception.


CAST :
Leonardo DiCaprio ... Cobb
Joseph Gordon-Levitt ... Arthur
Ellen Page ... Ariadne
Tom Hardy ... Eames
Ken Watanabe ... Saito
Dileep Rao ... Yusuf
Cillian Murphy ... Robert Fischer
Tom Berenger ... Peter Browning
Marion Cotillard ... Mal
Pete Postlethwaite ... Maurice Fischer
Michael Caine ... Miles
Lukas Haas ... Nash
Tai-Li Lee ... Tadashi


iMDB : tt1375666


General
Complete name : Inception[x264][Simbalord.UKB.Release].mp4
Format : MPEG-4
Format profile : Base Media
Codec ID : isom
File size : 1.97 GiB
Duration : 2h 22mn
Overall bit rate : 1 974 Kbps

Video
ID : 1
Format : AVC
Format/Info : Advanced Video Codec
Format profile : Main@L4.1
Format settings, CABAC : Yes
Format settings, ReFrames : 3 frames
Codec ID : avc1
Codec ID/Info : Advanced Video Coding
Duration : 2h 22mn
Bit rate mode : Variable
Bit rate : 1 773 Kbps
Nominal bit rate : 1 800 Kbps
Maximum bit rate : 7 953 Kbps
Width : 720 pixels
Height : 304 pixels
Display aspect ratio : 2.35:1
Frame rate mode : Constant
Frame rate : 23.976 fps
Resolution : 8 bits
Colorimetry : 4:2:0
Scan type : Progressive
Bits/(Pixel*Frame) : 0.338
Stream size : 1.77 GiB (90%)
Writing library : x264 core 65 r999kMod cc51047
Encoding settings : cabac=1 / ref=3 / deblock=1:0:0 / analyse=0x1:0 / me=dia / subme=1 /
psy_rd=0.0:0.0 / mixed_ref=1 / me_range=16 / chroma_me=1 / trellis=0 /
8x8dct=0 / cqm=0 / deadzone=21,11 / chroma_qp_offset=0 / threads=2 /
thread_queue=2 / nr=0 / decimate=1 / mbaff=0 / bframes=3 / b_pyramid=1 /
b_adapt=1 / b_bias=0 / direct=1 / wpredb=0 / keyint=250 / keyint_min=25 /
scenecut=40(pre) / rc=abr / bitrate=1800 / ratetol=1.0 / qcomp=0.60 /
qpmin=10 / qpmax=51 / qpstep=4 / ip_ratio=1.40 / pb_ratio=1.30 / aq=1:1.00

Audio
ID : 2
Format : AAC
Format/Info : Advanced Audio Codec
Format version : Version 4
Format profile : LC
Format settings, SBR : No
Codec ID : 40
Duration : 2h 22mn
Bit rate mode : Variable
Bit rate : 197 Kbps
Maximum bit rate : 306 Kbps
Channel(s) : 6 channels
Channel positions : Front: L C R, Rear: L R, LFE
Sampling rate : 48.0 KHz
Stream size : 202 MiB (10%)